<svg width="305" height="334" viewBox="0 0 305 334" fill="none" xmlns="http://www.w3.org/2000/svg">
<g clip-path="url(#clip0)">
<path d="M28.0999 25.5C28.0999 25.5 130.1 -34.2 228.9 29C327.7 92.2 301.7 221.7 301.7 221.7C301.7 221.7 285.8 205 256.5 210.4C256.5 210.4 257 170.4 213.8 174.1C213.8 174.1 192.1 123.6 145.1 137.5C145.1 137.5 136.3 92.4 79.5999 98.1C79.4999 98.1 66.8999 46.6 28.0999 25.5Z" fill="#8FA6E3"/>
<g opacity="0.4">
<g opacity="0.4">
<path opacity="0.4" d="M28.0999 25.5C28.0999 25.5 130.1 -34.2 228.9 29C327.7 92.2 301.7 221.7 301.7 221.7C301.7 221.7 285.8 205 256.5 210.4C256.5 210.4 257 170.4 213.8 174.1C213.8 174.1 192.1 123.6 145.1 137.5C145.1 137.5 136.3 92.4 79.5999 98.1C79.4999 98.1 66.8999 46.6 28.0999 25.5Z" fill="black"/>
</g>
</g>
<path d="M218.3 200.6C219.3 192.5 214.5 184 207 180.8C201.5 178.5 194.6 178.5 190.9 173.8C186.8 168.7 188.9 160.6 185.3 155.1C181.2 148.8 171.2 148.4 167.3 142.1C164.3 137.3 165.8 130.8 163.1 125.8C160.3 120.6 153.8 118.6 150 114.1C145.8 109.1 144.7 101.1 138.8 98.4C135.4 96.8 131.3 97.6 128.1 99.5C124.9 101.4 122.4 104.2 119.9 107.1C110 118.4 100.1 129.6 90.3 140.9C89.5 141.8 88.6 142.8 88.3 144C87.3 147.3 90.3 150.3 92.7 152.8C98.6 159 102.3 167.2 103.1 175.7C103.6 181 103.3 187.3 107.4 190.7C110.6 193.3 115.6 193.2 118.4 196.3C122.4 200.7 119.2 207.8 120.2 213.7C121.2 219.2 126 223.2 131 225.7C136 228.2 141.5 229.7 146.1 232.8C150.7 235.9 154.5 241.4 153.3 246.8C163.3 242 172.5 235.6 180.5 228C178.1 224.5 175.7 221.1 173.4 217.6C177.6 220.2 181.8 222.9 186.1 225.5C187.8 222.5 191.1 221 193.9 219.1C196.7 217.1 199.2 213.8 198 210.6C196.6 206.7 190.7 205.5 190.2 201.5C195.7 202.8 200.7 206 204.2 210.4C209.6 208.2 215.3 205.9 218.3 200.6Z" fill="#263238"/>
<path d="M131.7 180.1C141.6 172.3 150.1 174.9 159.5 177.2C168.8 179.5 176.3 188.3 183 195.2C189.7 202.1 195.6 209.7 202.8 216.1C210 222.4 218.9 227.4 228.5 227.6C235.6 227.7 242.6 225.1 249.6 226.1C256.5 227.1 262.8 231.8 265.7 238.1C263 244.7 260.3 251.2 257.7 257.8C254.4 249.5 244.4 246.2 235.5 246C226.6 245.8 217.6 247.8 208.9 246C198.4 243.8 189.9 236.4 182.6 228.6C175.3 220.8 168.7 212.1 159.8 206.2C150.9 200.2 139 197.4 129.5 202.4" fill="#8FA6E3"/>
<g opacity="0.4">
<g opacity="0.4">
<path opacity="0.4" d="M131.7 180.1C141.6 172.3 150.1 174.9 159.5 177.2C168.8 179.5 176.3 188.3 183 195.2C189.7 202.1 195.6 209.7 202.8 216.1C210 222.4 218.9 227.4 228.5 227.6C235.6 227.7 242.6 225.1 249.6 226.1C256.5 227.1 262.8 231.8 265.7 238.1C263 244.7 260.3 251.2 257.7 257.8C254.4 249.5 244.4 246.2 235.5 246C226.6 245.8 217.6 247.8 208.9 246C198.4 243.8 189.9 236.4 182.6 228.6C175.3 220.8 168.7 212.1 159.8 206.2C150.9 200.2 139 197.4 129.5 202.4" fill="black"/>
</g>
</g>
<path d="M248.4 248.8C248.5 248.8 249 247.7 249.8 245.8C250.6 243.9 251.5 241.3 252.5 238.4C253.4 235.5 254.1 232.7 254.6 230.8C255 228.8 255.2 227.6 255.2 227.6C255.1 227.6 254.8 228.8 254.3 230.7C253.8 232.6 253 235.3 252.1 238.3C251.2 241.2 250.3 243.9 249.6 245.8C248.7 247.6 248.3 248.8 248.4 248.8Z" fill="#1F4DC5"/>
<path d="M231.9 245.5C232 245.5 232.4 244.5 233 242.9C233.6 241.2 234.4 238.9 235.1 236.3C235.8 233.7 236.4 231.3 236.7 229.6C237 227.9 237.2 226.8 237.1 226.8C237 226.8 236.8 227.8 236.3 229.6C235.9 231.3 235.3 233.7 234.6 236.3C233.9 238.9 233.1 241.2 232.6 242.9C232.1 244.4 231.8 245.5 231.9 245.5Z" fill="#1F4DC5"/>
<path d="M214.1 246.9C214.2 247 216 242.5 218.1 237C220.2 231.5 221.8 226.9 221.6 226.9C221.5 226.8 219.7 231.3 217.6 236.8C215.6 242.3 214 246.8 214.1 246.9Z" fill="#1F4DC5"/>
<path d="M201 241.7C201.1 241.7 201.6 240.6 202.3 238.6C203 236.7 204 234 205 231C206 228 206.8 225.3 207.3 223.3C207.8 221.3 208.1 220.1 208 220.1C207.9 220.1 207.5 221.3 206.9 223.2C206.2 225.3 205.4 227.9 204.5 230.8C203.5 233.7 202.7 236.3 202 238.4C201.4 240.5 201 241.7 201 241.7Z" fill="#1F4DC5"/>
<path d="M189.4 234.1C189.5 234.1 191.4 229 193.6 222.5C195.8 216.1 197.4 210.8 197.3 210.8C197.2 210.8 195.3 215.9 193.1 222.4C190.9 228.8 189.3 234.1 189.4 234.1Z" fill="#1F4DC5"/>
<path d="M182.6 211C182.7 211.1 183.9 208.5 185.3 205.3C186.6 202.1 187.6 199.5 187.5 199.4C187.4 199.3 186.2 201.9 184.8 205.1C183.4 208.3 182.4 210.9 182.6 211Z" fill="#1F4DC5"/>
<path d="M171.5 196.1C171.6 196.2 172.7 194.4 173.9 192.2C175.1 190 175.9 188.1 175.8 188C175.7 187.9 174.6 189.7 173.4 191.9C172.2 194.2 171.4 196.1 171.5 196.1Z" fill="#1F4DC5"/>
<path d="M156.2 186.9C156.3 186.9 157.2 184.9 158.2 182.4C159.2 179.9 160.1 177.9 160 177.8C159.9 177.7 158.8 179.7 157.7 182.2C156.6 184.7 156 186.8 156.2 186.9Z" fill="#1F4DC5"/>
<path d="M141.8 183.1C141.9 183.1 142.2 181.3 142.1 179C142 176.7 141.5 174.9 141.3 175C141.2 175 141.4 176.8 141.5 179.1C141.7 181.3 141.6 183.1 141.8 183.1Z" fill="#1F4DC5"/>
<path d="M153.5 277.7L168.4 193.7C154.3 182.1 139.1 182.9 139.1 182.9L89.9999 183.3C89.9999 183.3 86.8999 183.5 82.2999 184.9C76.2999 185.3 64.9999 187.6 56.4999 201.6C47.4999 216.5 34.3999 247 34.3999 247L31.5999 212.8L9.69992 206.1C-8.50008 254.6 3.19989 291.3 23.2999 294.3C39.9999 296.8 56.1999 276.5 56.1999 276.5L64.2999 262.6L66.0999 271.8L70.8999 294.7L53.3999 333.9C59.4999 333.9 63.5999 334.2 71.1999 333.9H164.9C164.2 326.8 155.2 317.9 155.2 317.9C148.8 306.9 150.5 290.3 153.5 277.7Z" fill="#FAC502"/>
<path d="M63.9 323.5C63.9 323.5 64.1 323.4 64.5 323.1C64.8 322.8 65.4 322.4 66.1 321.8C67.6 320.8 69.9 319.5 72.9 318.6C76 317.7 79.8 317.3 84 317.4C88.2 317.6 92.8 318.4 97.7 319.2C102.5 320 107.2 320.8 111.5 320.7C115.8 320.7 119.6 319.9 122.6 318.7C125.6 317.5 127.8 316 129.1 314.8C129.8 314.2 130.2 313.7 130.5 313.3C130.8 312.9 131 312.7 130.9 312.7C130.9 312.7 130.7 312.9 130.4 313.2C130.1 313.6 129.6 314 128.9 314.6C127.6 315.8 125.4 317.2 122.4 318.3C119.4 319.4 115.6 320.1 111.4 320.1C107.2 320.1 102.6 319.4 97.7 318.6C92.9 317.8 88.3 316.9 84 316.8C79.7 316.7 75.9 317.2 72.8 318.1C69.7 319 67.4 320.4 66 321.5C65.3 322.1 64.8 322.5 64.4 322.8C64 323.3 63.9 323.5 63.9 323.5Z" fill="#1F4DC5"/>
<path d="M33.7999 262.4C34.0999 262.4 34.5 258.7 34.6 254.2C34.7 249.6 34.5999 245.9 34.2999 245.9C33.9999 245.9 33.5999 249.6 33.4999 254.1C33.3999 258.7 33.4999 262.4 33.7999 262.4Z" fill="#263238"/>
<g opacity="0.2">
<g opacity="0.2">
<g opacity="0.2">
<path opacity="0.2" d="M158.1 321C158.5 321.1 160.5 324 159.9 325.3C159.4 326.6 157.9 327.3 156.5 327.3C155.1 327.4 153.8 326.9 152.4 326.5C136.7 321.2 121.1 315.8 105.4 310.5C98.1998 308.1 91.0998 305.6 83.8998 303.2C81.3998 302.4 78.5998 301.1 78.0998 298.6C77.8998 297.8 78.0998 296.9 77.7998 296.2C77.3998 295 76.0998 294.2 74.8998 293.8C73.6998 293.4 72.3998 293.1 71.2998 292.3C70.2998 291.5 69.4998 289 70.1998 287.9C70.0998 288.1 77.9998 289 81.8998 291C81.5998 292.6 80.5998 296.6 80.5998 296.6C80.5998 296.6 84.7998 297.7 86.2998 298.3C111.3 308.2 133.2 312.5 158.1 321Z" fill="black"/>
</g>
</g>
</g>
<path d="M31.6998 146.3L65.2998 200.7L38.8998 208.1L9.59981 162.9L31.6998 146.3Z" fill="#E9EEFA"/>
<path d="M33.7999 192.7L32.6999 200.7L27.9999 206.7L27.4999 211.6L10.6999 206.5L17.4999 182.5C17.4999 182.5 16.3999 175.5 16.7999 172.7L21.3999 178.8L22.6999 168.8L32.1999 161.2C33.1999 160.4 34.6999 160.7 35.3999 161.7C36.0999 162.6 35.9999 163.9 35.0999 164.7L27.4999 171.4L26.9999 179.7L32.4999 174.6C32.9999 174.1 33.6999 173.7 34.3999 173.6L42.0999 172.1C43.2999 171.9 44.3999 172.7 44.4999 173.9C44.5999 174.8 43.9999 175.7 43.0999 176L36.0999 178.1L28.9999 185.2L35.8999 182.6L45.2999 183.9C46.1999 184 46.8999 184.8 46.8999 185.7C46.8999 186.7 45.9999 187.6 44.9999 187.5L38.9999 187.2L35.4999 188.3L43.5999 190.4C44.2999 190.6 44.7999 191.3 44.7999 192.1C44.7999 193 43.9999 193.7 42.9999 193.6L33.7999 192.7Z" fill="#FFBE9D"/>
<path d="M65.2998 200.7C65.2998 200.7 67.5998 197.6 67.3998 197.1C67.1998 196.6 35.4998 144.3 35.4998 144.3L31.7998 146.3L65.2998 200.7Z" fill="#263238"/>
<path d="M23.2998 160C22.6998 159.4 21.5998 159.7 21.3998 160.5C21.1998 161.3 21.9998 162.1 22.7998 162C23.4998 161.8 23.8998 160.7 23.2998 160Z" fill="#263238"/>
<path d="M159 188C159 188 184 195.6 189.4 233C191.3 245.9 193.6 275.7 194.4 297.8C194.9 312.3 189.5 320.5 180.8 323.5C176.2 325.1 171.2 324.9 166.5 323.5L80.8999 296.9L88.2999 261L152.7 278.3L151.1 251.7L159 188Z" fill="#FAC502"/>
<path d="M164.5 292C164.5 292 164.3 290.3 162.8 287.5C161.2 284.8 158.1 281.1 152.9 278.2C138.4 274.5 115.7 268.8 89.2999 262.2L88.7999 262.1L88.6998 262.6C86.9998 269.9 85.1999 277.5 83.2999 285.4C82.3998 289.2 81.5998 292.9 80.6998 296.4L80.5999 296.9L81.0999 297.1C106.8 305.6 129.8 312.8 146.3 317.8C154.6 320.3 161.2 322.2 165.9 323.5C168.1 324.1 169.9 324.6 171.2 324.9C171.8 325 172.2 325.1 172.6 325.2C172.9 325.3 173.1 325.3 173.1 325.3C173.1 325.3 173 325.2 172.6 325.1C172.2 325 171.8 324.8 171.2 324.7C169.9 324.3 168.2 323.8 165.9 323.1C161.2 321.6 154.6 319.6 146.4 317C129.9 311.8 107 304.4 81.2999 295.9L81.6998 296.6C82.4998 293.1 83.3998 289.4 84.2999 285.6C86.0999 277.7 87.8999 270.1 89.5999 262.8L88.8998 263.2C115.4 269.7 138.1 275.2 152.6 278.8H152.5C157.6 281.6 160.8 285.1 162.4 287.7C164.1 290.3 164.4 292 164.5 292Z" fill="#263238"/>
<path d="M152.8 246C152.5 246 152.5 253.4 152.8 262.5C153.1 271.6 153.6 279 153.9 279C154.2 279 154.2 271.6 153.9 262.5C153.6 253.3 153.1 245.9 152.8 246Z" fill="#263238"/>
<path d="M43.6 227.2C43.6 227.2 44.2 227.1 45.2 227.1C46.3 227.1 47.8999 227.4 49.7 228.3C51.5 229.2 53.5 230.8 55.6 232.8C56.6 233.8 57.8 234.9 59 236C60.3 237.1 61.8 238.1 63.5 238.8C67 240.2 71.2 240.2 75.5 239.5C79.8 238.8 84.2 237.2 88.8999 236.3C91.2999 235.9 93.8 235.6 96.3 235.8C98.8 236 101.3 236.8 103.6 238.1C108.2 240.6 112.2 244.5 116.8 247.7C119.1 249.3 121.6 250.6 124.3 251.4C126.9 252.2 129.7 252.5 132.4 252.4C135.1 252.3 137.7 251.7 140.1 250.8C142.5 249.9 144.7 248.6 146.7 247.2C150.7 244.4 154.1 241.2 157.6 238.8C161.1 236.3 164.8 234.6 168.4 234C172 233.4 175.4 233.6 178.2 234.3C181 235 183.3 236 185.1 237C188.7 239.1 190.1 240.9 190.2 240.8C190.2 240.8 190.1 240.7 189.9 240.5C189.7 240.3 189.4 240 189 239.6C188.6 239.2 188.1 238.8 187.5 238.3C186.8 237.8 186.1 237.3 185.2 236.8C183.4 235.7 181.1 234.7 178.3 234C175.5 233.3 172.1 233 168.4 233.6C166.6 233.9 164.7 234.5 162.8 235.3C160.9 236.1 159.1 237.2 157.3 238.4C153.7 240.9 150.3 244 146.3 246.8C144.3 248.2 142.2 249.5 139.8 250.4C137.5 251.3 134.9 251.9 132.3 251.9C129.7 252 127 251.7 124.4 250.9C121.8 250.1 119.4 248.8 117.1 247.3C112.5 244.1 108.6 240.2 103.8 237.7C101.5 236.4 98.9 235.6 96.3 235.4C93.7 235.2 91.2 235.4 88.8 235.9C84 236.8 79.5999 238.4 75.3999 239.1C71.2 239.9 67 239.8 63.6 238.5C60.2 237.2 57.8999 234.6 55.7 232.7C53.5999 230.7 51.5999 229.1 49.7 228.2C47.8 227.3 46.2 227 45.1 227.1C44.1 227 43.6 227.2 43.6 227.2Z" fill="#1F4DC5"/>
<path d="M56.3998 203.2C56.3998 203.2 56.4999 203.3 56.5999 203.5C56.7999 203.7 56.9999 204 57.2999 204.3C57.8999 205 58.8999 205.9 60.2999 206.8C61.6999 207.7 63.5998 208.7 65.8998 209.4C68.1999 210 71.0999 210.3 74.0999 209.8C77.0999 209.3 80.2999 208.3 83.7999 207.8C87.2999 207.2 91.0999 208 94.5999 209.9C98.0999 211.8 101.3 214.5 104.9 217.1C106.7 218.4 108.5 219.6 110.6 220.6C112.6 221.6 114.8 222.4 117.1 222.9C121.7 223.9 126.3 223.8 130.6 222.8C134.9 221.7 138.7 219.8 142.2 217.8C145.7 215.8 148.8 213.6 151.9 211.8C154.9 209.9 157.8 208.4 160.6 207.2C166.2 204.9 171.2 204.6 174.6 205.2C176.3 205.5 177.5 205.8 178.4 206.2C178.8 206.3 179.1 206.5 179.3 206.6C179.5 206.7 179.6 206.7 179.6 206.7C179.6 206.7 179.5 206.6 179.3 206.5C179.1 206.4 178.8 206.2 178.4 206.1C177.6 205.8 176.3 205.3 174.6 205C171.3 204.4 166.1 204.6 160.5 206.9C157.7 208 154.7 209.6 151.7 211.4C148.6 213.2 145.5 215.4 142 217.4C138.6 219.4 134.8 221.3 130.6 222.3C126.4 223.4 121.8 223.4 117.3 222.4C115.1 221.9 112.9 221.1 110.9 220.2C108.9 219.2 107.1 218 105.3 216.7C101.8 214.2 98.4999 211.4 94.9999 209.5C93.1999 208.5 91.3999 207.8 89.4999 207.5C88.5999 207.3 87.5999 207.2 86.6999 207.2C85.7999 207.2 84.8999 207.3 83.9999 207.4C80.3999 207.9 77.2999 209 74.2999 209.5C71.2999 210 68.5999 209.8 66.2999 209.2C63.9999 208.6 62.0999 207.6 60.6999 206.7C59.2999 205.8 58.2999 204.9 57.6999 204.3C57.3998 204 57.1999 203.7 56.9999 203.6C56.4999 203.3 56.3998 203.2 56.3998 203.2Z" fill="#1F4DC5"/>
<path d="M153.8 272.6C153.8 272.7 156 271.6 159.8 270.6C160.3 270.5 160.8 270.4 161.3 270.2C161.8 270.1 162.4 270 162.9 269.9C164 269.7 165.3 269.6 166.5 269.5C169.1 269.4 171.9 269.4 174.9 269.8C177.8 270.3 180.6 271 183 271.9C184.2 272.4 185.3 272.8 186.4 273.4C186.9 273.7 187.4 273.9 187.9 274.1C188.4 274.4 188.8 274.6 189.2 274.9C192.5 276.9 194.3 278.6 194.4 278.5C194.4 278.5 194 278.1 193.2 277.3C192.8 276.9 192.3 276.5 191.6 276C191 275.5 190.3 275 189.4 274.5C189 274.2 188.5 274 188.1 273.7C187.6 273.4 187.1 273.2 186.6 272.9C185.6 272.3 184.4 271.9 183.2 271.4C180.8 270.5 178 269.7 175 269.2C172 268.8 169.1 268.7 166.5 268.9C165.2 269 164 269.1 162.8 269.4C162.2 269.5 161.7 269.6 161.2 269.7C160.7 269.8 160.2 270 159.7 270.1C158.7 270.3 157.9 270.7 157.2 270.9C156.5 271.1 155.8 271.4 155.3 271.6C154.4 272.3 153.8 272.6 153.8 272.6Z" fill="#1F4DC5"/>
<path d="M130.4 273.4C130.4 273.4 131 273.8 131.7 274.9C132.5 276 133.2 277.7 133.4 280.1C133.7 282.4 133.3 285.2 133.4 288.3C133.4 289.9 133.6 291.5 134.2 293.2C134.8 294.8 135.8 296.3 136.9 297.7C139.2 300.5 142 302.6 144.2 304.7C146.5 306.8 148.3 308.9 149.2 311.1C150.2 313.2 150.4 315.1 150.4 316.4C150.3 317.7 150.1 318.4 150.1 318.4C150.1 318.4 150.2 318.2 150.3 317.9C150.4 317.6 150.5 317.1 150.6 316.4C150.7 315.1 150.5 313.1 149.5 310.9C148.6 308.7 146.7 306.5 144.5 304.3C142.2 302.1 139.5 300.1 137.3 297.3C136.2 295.9 135.3 294.5 134.7 292.9C134.1 291.4 133.9 289.7 133.9 288.2C133.8 285.1 134.2 282.3 133.8 279.9C133.5 277.5 132.7 275.7 131.9 274.7C131.1 273.7 130.4 273.4 130.4 273.4Z" fill="#1F4DC5"/>
<path d="M91.2999 299.2C91.2999 299.2 91.3998 298.7 91.4998 297.8C91.5998 296.9 91.9999 295.6 92.7999 294.3C93.5999 292.9 94.7998 291.4 96.1998 289.8C97.5998 288.2 99.2998 286.5 100.7 284.4C103.7 280.3 104.9 275.8 105.3 272.6C105.5 271 105.6 269.7 105.6 268.7C105.6 267.8 105.6 267.3 105.6 267.3C105.6 267.3 105.5 267.8 105.4 268.7C105.3 269.6 105.2 270.9 104.9 272.5C104.4 275.7 103.2 280.1 100.3 284.1C98.7999 286.1 97.1999 287.8 95.7999 289.4C94.3999 291 93.1998 292.6 92.3998 294C91.5998 295.4 91.2998 296.8 91.1998 297.7C91.1998 298.2 91.1998 298.5 91.1998 298.8C91.2998 299.1 91.2999 299.2 91.2999 299.2Z" fill="#1F4DC5"/>
<path d="M36 252.6C36 252.6 36.1 252.9 36.2 253.5C36.3 253.8 36.4 254.2 36.6 254.6C36.8 255 36.9 255.5 37.2 256C37.7 257 38.4 258.1 39.2 259.3C40.1 260.5 41.2 261.7 42.5 262.8C43.8 263.9 45.1 264.8 46.4 265.6C47.7 266.3 48.9 266.9 50 267.2C51.1 267.6 51.9 267.8 52.5 267.9C53.1 268 53.5 268.1 53.5 268C53.5 267.9 52.2 267.6 50.1 266.9C49.1 266.5 47.9 265.9 46.6 265.2C45.4 264.5 44.1 263.5 42.8 262.4C41.6 261.3 40.5 260.1 39.6 259C38.7 257.8 38 256.8 37.5 255.8C36.5 253.9 36 252.6 36 252.6Z" fill="#1F4DC5"/>
<path d="M0.499908 254.4C0.599907 254.5 1.7999 252.7 4.2999 250.3C5.4999 249.1 7.09991 247.8 8.99991 246.5C10.8999 245.2 13.0999 244.1 15.5999 243.1C19.1999 241.7 22.7999 241.1 25.7999 240.9C28.7999 240.7 31.1999 241.1 32.6999 241.3H32.8999L32.7999 241.1C32.1999 240.2 31.7999 239.8 31.7999 239.8C31.7999 239.8 32.0999 240.3 32.5999 241.2L32.6999 241C31.1999 240.7 28.7999 240.3 25.7999 240.4C22.6999 240.5 19.0999 241.1 15.3999 242.5C12.8999 243.5 10.5999 244.6 8.69992 245.9C6.79992 247.2 5.19991 248.5 3.99991 249.8C3.39991 250.4 2.8999 251 2.3999 251.5C2.1999 251.8 1.9999 252 1.7999 252.2C1.5999 252.4 1.4999 252.7 1.2999 252.9C0.699898 253.9 0.39991 254.4 0.499908 254.4Z" fill="#1F4DC5"/>
<path d="M81.8999 94.6C82.1999 98.6 79.4999 102.2 76.7999 105.3C74.0999 108.3 71.0999 111.5 70.4999 115.5C69.4999 122.6 76.3999 129.2 74.9999 136.2C74.1999 140 71.0999 143 70.5999 146.8C70.0999 150.5 71.9999 154.1 74.4999 156.9C76.8999 159.7 79.8999 162 82.0999 165.1C84.3999 168.3 85.5999 172.1 87.2999 175.6C88.8999 179.2 91.0999 182.7 94.5999 184.6C99.7999 187.4 107 186.1 111 190.4C114.8 194.6 113.6 202.3 118.4 205.5" fill="#263238"/>
<path d="M143.9 100.7C144 97 140.6 94.2 137.2 92.9C133.8 91.6 130 91.1 127 89C124.3 87.2 122.5 84.4 120.2 82.1C114.6 76.4 105.9 74.1 98.1998 76.2C90.4998 78.3 84.1999 84.7 82.2999 92.5C80.9998 97.7 81.8998 103.9 85.9998 107.3C90.7998 111.3 97.7998 110.4 104 109.2C110.1 107.9 117 106.7 122.1 110.3C125.2 112.5 126.9 116 128.8 119.2C130.7 122.5 133 125.8 136.6 127C140.2 128.2 145 126.1 145.1 122.3" fill="#263238"/>
<path d="M129.5 101.5C132.7 101.8 135 104.5 135 107.7L131.3 190.4C131.1 200.2 117 200.9 106.6 200.6V199.6C96 199.4 95.5 200 95.4 190.7C95.2 175.2 95.2 169.3 95.2 169.4C95.2 169.4 81.9 167.2 79.1 149.7C77.7 141 78.2 126.8 79 115.2C79.7 104.8 86.6 91.9 97 93.1L129.5 101.5Z" fill="#FFBE9D"/>
<path d="M82.2001 125.3C82.2001 126.5 83.1001 127.5 84.3001 127.6C85.5001 127.7 86.6001 126.8 86.6001 125.6C86.6001 124.4 85.7001 123.4 84.5001 123.3C83.3001 123.2 82.3001 124.1 82.2001 125.3Z" fill="#263238"/>
<path d="M82.0001 122.7C82.3001 123 84.0001 121.7 86.4001 121.8C88.8001 121.8 90.6001 123 90.8001 122.7C90.9001 122.6 90.6001 122 89.9001 121.5C89.1001 120.9 87.9001 120.4 86.4001 120.4C84.9001 120.4 83.6001 121 82.9001 121.5C82.1001 122.1 81.9001 122.6 82.0001 122.7Z" fill="#263238"/>
<path d="M106.2 125.9C106.2 127.1 107.1 128.1 108.3 128.2C109.5 128.3 110.6 127.4 110.6 126.2C110.6 125 109.7 124 108.5 123.9C107.2 123.8 106.2 124.7 106.2 125.9Z" fill="#263238"/>
<path d="M105.6 123.2C105.9 123.5 107.6 122.2 110 122.3C112.4 122.3 114.2 123.5 114.4 123.2C114.5 123.1 114.3 122.5 113.5 122C112.7 121.4 111.5 120.9 110 120.9C108.5 120.9 107.2 121.5 106.5 122C105.7 122.6 105.5 123.1 105.6 123.2Z" fill="#263238"/>
<path d="M96.9 141C96.9 140.9 95.4 140.6 93 140.3C92.4 140.2 91.8 140.1 91.7 139.7C91.6 139.3 91.8 138.6 92.1 137.9C92.7 136.4 93.3 134.9 93.9 133.2C96.4 126.6 98.3 121.1 98 121C97.7 120.9 95.5 126.2 92.9 132.9C92.3 134.5 91.7 136.1 91.2 137.6C91 138.3 90.6 139.1 90.9 140C91.1 140.5 91.5 140.8 91.9 140.9C92.3 141 92.6 141 92.9 141C95.3 141.2 96.9 141.2 96.9 141Z" fill="#263238"/>
<path d="M95.0999 169.5C95.0999 169.5 106.8 170.3 118.4 163.3C118.4 163.3 112.7 175.3 95.2999 173.6L95.0999 169.5Z" fill="#EB996E"/>
<path d="M97.9 146.8C98.8 145.7 100.3 145 101.8 145.2C102.8 145.3 103.9 145.8 104.5 146.7C105.1 147.6 105.3 148.8 104.7 149.6C104 150.5 102.7 150.7 101.5 150.4C100.4 150.1 99.4 149.3 98.4 148.6C98.1 148.4 97.9 148.2 97.7 147.9C97.5 147.6 97.5 147.2 97.7 147" fill="#EB996E"/>
<path d="M103.9 142.7C103.5 142.7 103.5 145.3 101.3 147.1C99.1 149 96.3 148.7 96.3 149C96.3 149.2 96.9 149.5 98.1 149.5C99.3 149.5 100.9 149.2 102.3 148C103.7 146.9 104.3 145.4 104.3 144.3C104.4 143.4 104.1 142.7 103.9 142.7Z" fill="#263238"/>
<path d="M104.6 119C104.8 119.7 107.2 119.3 110.1 119.7C112.9 120 115.2 120.8 115.6 120.2C115.8 119.9 115.4 119.3 114.5 118.7C113.6 118.1 112.1 117.5 110.4 117.3C108.7 117.1 107.2 117.4 106.1 117.8C105 118.2 104.5 118.7 104.6 119Z" fill="#263238"/>
<path d="M82.9001 115.8C83.3001 116.3 85.0001 115.8 87.0001 115.8C89.0001 115.7 90.7001 116.2 91.1001 115.6C91.3001 115.3 91.0001 114.8 90.3001 114.3C89.6001 113.8 88.4001 113.4 87.0001 113.4C85.6001 113.4 84.4001 113.9 83.8001 114.5C82.9001 114.9 82.7001 115.5 82.9001 115.8Z" fill="#263238"/>
<path d="M141.4 184.8C141.5 180.4 141.6 175.9 139.9 171.8C138.1 167.8 134 164.3 129.4 164.6C126.1 164.8 123.3 166.7 120.3 168.1C115.3 170.4 109.6 171.2 104.2 170.4C101.9 170.1 99.6999 169.4 97.3999 169.4C95.0999 169.3 92.5999 170 91.0999 171.6C89.2999 173.6 89.3999 176.5 89.5999 179.1C89.8999 183.2 90.1999 187.3 91.4999 191.1C92.7999 195 95.1999 198.6 98.8999 200.8C104 203.8 110.6 203.3 116.7 202.5C122.4 201.8 128.2 200.8 133.2 198.1C138.2 195.3 142.1 190.3 141.8 184.9" fill="#8FA6E3"/>
<g opacity="0.4">
<g opacity="0.4">
<path opacity="0.4" d="M141.4 184.8C141.5 180.4 141.6 175.9 139.9 171.8C138.1 167.8 134 164.3 129.4 164.6C126.1 164.8 123.3 166.7 120.3 168.1C115.3 170.4 109.6 171.2 104.2 170.4C101.9 170.1 99.6999 169.4 97.3999 169.4C95.0999 169.3 92.5999 170 91.0999 171.6C89.2999 173.6 89.3999 176.5 89.5999 179.1C89.8999 183.2 90.1999 187.3 91.4999 191.1C92.7999 195 95.1999 198.6 98.8999 200.8C104 203.8 110.6 203.3 116.7 202.5C122.4 201.8 128.2 200.8 133.2 198.1C138.2 195.3 142.1 190.3 141.8 184.9" fill="black"/>
</g>
</g>
<path d="M129.8 199.4C129.8 199.4 129.9 199.4 130.1 199.2C130.3 199.1 130.6 198.8 130.9 198.5C131.5 197.8 131.9 196.4 132.1 194.8C132.4 191.6 133 187.1 133 182.1C133 179.6 132.9 177.2 132.6 175.1C132.3 173 131.8 171 130.9 169.6C130.1 168.2 129 167.2 128.3 166.8C127.9 166.6 127.6 166.4 127.4 166.3C127.2 166.2 127 166.2 127 166.2C127 166.2 127.5 166.4 128.2 166.9C128.9 167.4 129.9 168.3 130.6 169.8C132.2 172.6 132.4 177.2 132.5 182.1C132.5 187 132 191.5 131.7 194.8C131.6 196.4 131.2 197.7 130.7 198.4C130.2 199.1 129.7 199.4 129.8 199.4Z" fill="#1F4DC5"/>
<path d="M118 202.7C118 202.7 118 202.2 117.9 201.4C117.8 200.5 117.7 199.3 117.5 197.9C117.2 195 116.7 190.9 116.3 186.5C115.9 182 115.5 178 115.2 175C115.1 173.6 115 172.5 114.9 171.5C114.8 170.7 114.8 170.2 114.7 170.2C114.7 170.2 114.7 170.7 114.7 171.5C114.7 172.3 114.8 173.5 114.9 175C115.1 177.9 115.4 182 115.8 186.5C116.2 191 116.8 195 117.2 197.9C117.4 199.4 117.6 200.5 117.7 201.3C117.9 202.3 118 202.7 118 202.7Z" fill="#1F4DC5"/>
<path d="M100.7 170.6C100.7 170.6 100.6 170.6 100.3 170.6C100.1 170.7 99.6999 170.8 99.3999 171.1C98.6999 171.7 98.1999 173.1 97.9999 174.7C97.6999 176.3 97.6999 178.3 97.7999 180.4C97.8999 182.5 98.2999 184.9 98.5999 187.3C98.8999 189.7 99.3999 192.1 99.9999 194.1C100.6 196.2 101.5 197.9 102.4 199.3C103.3 200.7 104.2 201.6 104.9 202.2C105.2 202.5 105.5 202.7 105.7 202.8C105.9 202.9 106 203 106 203C106.1 202.9 104.3 201.8 102.6 199.1C101.8 197.7 100.9 196 100.3 194C99.6999 192 99.2999 189.7 98.8999 187.2C98.5999 184.8 98.1999 182.4 98.0999 180.3C97.8999 178.2 97.8999 176.3 98.1999 174.7C98.3999 173.1 98.7999 171.9 99.3999 171.2C100.1 170.6 100.7 170.7 100.7 170.6Z" fill="#1F4DC5"/>
<path d="M94.6998 169.7C98.3998 171.2 98.2998 177.2 101 180C104.6 183.7 111.1 181.1 115.8 183.3C122 186.2 121.9 195.5 127.2 199.9C130.4 202.6 135.3 203.1 137.8 206.5C140.4 210 138.8 215.8 134.7 217.4C133.4 216.6 132.1 215.8 130.8 214.9C131.9 216.7 131.3 219.1 130 220.8C128.7 222.4 126.7 223.5 124.9 224.4C122.5 224.1 121.3 221.5 120.7 219.2C120.2 216.9 119.8 214.3 118 212.8C115.8 211 112.4 211.7 109.9 210.3C105 207.5 107.1 199.1 102.7 195.5C99.8998 193.2 95.7998 193.9 92.4998 192.5C87.6998 190.5 85.7998 184.8 85.2998 179.6C84.7998 174.5 85.0998 169 82.4998 164.5" fill="#263238"/>
<path d="M141.6 158.8C136.8 159.8 131.6 158.3 128 155C124.4 151.7 122.6 146.6 123.2 141.7C123.7 137.4 126 133.1 124.6 129C122.6 123.6 115.1 122 113.1 116.7C111.9 113.6 113 110 111.7 106.9C110.5 104 107.5 102.4 104.5 101.3C101.6 100.2 98.3998 99.5 95.9998 97.6C93.4998 95.7 91.9999 92.1 93.5999 89.4C106.6 91 119.4 94.1 131.7 98.6C134.5 99.7 137.5 100.9 139.2 103.5C141 106.2 140.9 109.6 140.7 112.8C140 128.4 139.2 144.1 138.5 159.7" fill="#263238"/>
<path d="M151 173.3C151 173.3 151.1 172.9 151.1 172.1C151.1 171.3 150.9 170.2 150.4 168.8C149.9 167.4 148.9 165.9 147.5 164.4C146.1 162.9 144.1 161.5 141.8 160.2C139.5 158.9 136.9 157.8 134.3 156.2C131.7 154.7 129.1 152.6 127.4 149.7C126.6 148.2 126 146.5 126.1 144.8C126.1 143 126.5 141.2 126.9 139.4C127.3 137.6 127.7 135.6 127.3 133.6C127.1 132.6 126.7 131.7 126.1 130.9C125.5 130.1 124.7 129.5 123.8 128.9C122.1 127.9 120.2 127.3 118.4 126.5C116.7 125.7 115.1 124.6 114.2 123C113.3 121.4 113 119.6 113 117.8C112.9 116 113 114.3 113 112.5C113 110.8 112.8 109.1 112.2 107.5C112 107.1 111.9 106.7 111.7 106.4C111.5 106 111.3 105.7 111 105.4C110.5 104.8 109.9 104.2 109.3 103.7C106.7 101.9 103.8 101.3 101.3 100.7C98.7999 100.1 96.4999 99.4 94.7999 98.3C93.0998 97.2 92.0998 95.6 91.6998 94.2C91.2998 92.8 91.3999 91.7 91.5999 91C91.7999 90.3 92.0999 90 92.0999 89.9C92.0999 89.9 91.7998 90.2 91.4998 90.9C91.1998 91.6 91.0998 92.8 91.4998 94.2C91.8998 95.6 92.8999 97.3 94.5999 98.5C96.2999 99.7 98.5999 100.4 101.1 101.1C103.6 101.7 106.4 102.3 108.9 104.1C109.5 104.5 110 105.1 110.5 105.7C110.7 106 110.9 106.3 111.1 106.7C111.3 107 111.4 107.4 111.6 107.8C112.1 109.3 112.3 111 112.3 112.7C112.3 114.4 112.2 116.2 112.3 118C112.4 119.8 112.6 121.7 113.6 123.4C114.5 125.1 116.3 126.3 118 127.1C119.8 127.9 121.6 128.5 123.3 129.5C124.1 130 124.9 130.6 125.5 131.3C126.1 132 126.5 132.9 126.6 133.8C127 135.6 126.6 137.5 126.2 139.3C125.8 141.1 125.4 142.9 125.4 144.8C125.4 146.6 125.9 148.4 126.8 149.9C128.6 152.9 131.3 155 133.9 156.6C136.6 158.1 139.2 159.3 141.5 160.5C143.8 161.7 145.7 163.1 147.1 164.5C148.5 166 149.5 167.5 150.1 168.8C150.7 170.1 150.8 171.2 150.9 172C151 172.9 151 173.3 151 173.3Z" fill="#263238"/>
<path d="M100.3 185.2C100.3 185.1 99.0998 185.5 96.8998 185.5C94.6998 185.5 91.4998 184.8 88.1998 182.6C86.5998 181.5 84.9998 179.9 83.8998 177.9C82.6998 175.9 82.1998 173.5 81.6998 170.9C81.1998 168.3 80.7998 165.5 79.3998 163C77.8998 160.4 75.2998 158.8 73.0998 156.8C70.7998 154.8 69.3998 152.1 68.9998 149.4C68.7998 148 68.7998 146.6 69.0998 145.3C69.3998 144 69.8998 142.8 70.4998 141.6C71.7998 139.4 73.3998 137.4 74.0998 135.1C74.8998 132.9 74.9998 130.6 74.7998 128.6C74.3998 124.6 73.1998 121.6 72.3998 119.5C71.9998 118.5 71.5998 117.7 71.3998 117.2C71.1998 116.7 70.9998 116.4 70.9998 116.4C70.9998 116.4 71.0998 116.7 71.2998 117.2C71.4998 117.8 71.7998 118.6 72.1998 119.6C72.8998 121.7 74.0998 124.7 74.4998 128.6C74.6998 130.5 74.4998 132.7 73.7998 134.9C73.0998 137.1 71.4998 139 70.1998 141.3C69.4998 142.4 68.9998 143.7 68.6998 145.1C68.3998 146.5 68.3998 147.9 68.5998 149.4C68.7998 150.8 69.2998 152.3 69.9998 153.6C70.6998 154.9 71.6998 156.1 72.7998 157.1C75.0998 159.1 77.5998 160.8 78.9998 163.2C80.3998 165.6 80.7998 168.4 81.2998 171C81.7998 173.6 82.2998 176.1 83.5998 178.1C84.7998 180.2 86.3998 181.7 88.0998 182.8C91.3998 185.1 94.7998 185.7 96.9998 185.6C97.5998 185.6 98.0998 185.6 98.4998 185.5C98.8998 185.5 99.2998 185.4 99.5998 185.3C99.9998 185.3 100.3 185.3 100.3 185.2Z" fill="#263238"/>
<path d="M39.9999 291.5C47.9999 291.5 55.6999 287.4 60.1999 280.1L184.1 77.7C184.7 76.7 184.4 75.3 183.4 74.7C182.4 74.1 181 74.4 180.4 75.4L56.5999 277.9C51.0999 286.9 39.4998 289.9 30.2999 284.6C25.5999 281.9 22.3999 277.6 21.0999 272.4C19.7999 267.2 20.6999 261.8 23.5999 257.3L27.3999 251.4C27.9999 250.4 27.7999 249 26.6999 248.4C25.6999 247.7 24.2999 248 23.6999 249.1L19.8999 255C16.3999 260.5 15.2999 267.1 16.7999 273.5C18.3999 279.9 22.3999 285.2 27.9999 288.5C31.7999 290.5 35.9999 291.5 39.9999 291.5Z" fill="#E9EEFA"/>
<path d="M28.2999 25.8C28.2999 25.8 71.7999 28.4 92.8999 71.5C92.8999 71.5 140.8 67.5 155.5 106.7C155.5 106.7 211 100.4 222.9 151.5C222.9 151.5 267.3 149.9 269.9 190.3C269.9 190.3 299.9 191.5 301.9 221.9C301.9 221.9 327.1 97.8 234.4 32.7C136.4 -36.1 28.2999 25.8 28.2999 25.8Z" fill="#E9EEFA"/>
<path d="M82 290.9L87.2 267.7L81.6 265.4C80.8 264.8 77.9 262.6 74 258.5C72.8 257.2 71.8 255.7 71.1 254.1C70.2 252.2 69.2 249.5 69.1 247.9C69 245.9 66.4 245.1 65.5 246.7C64.5 248.2 64.7999 253.8 67.8999 259.4C69.9999 263.2 66.4 262.7 62.8 261.6C60.1 260.8 57.2 262.1 56.1 264.7L52.8 272.3C50.7 277.1 53.1 282.8 58 284.6C59.6 285.2 60.8 285.6 60.8 285.6L82 290.9Z" fill="#FFBE9D"/>
<path d="M276.1 126.3C276.1 126.4 277.8 126.4 280.5 126.8C281.8 127 283.4 127.4 285.1 127.9C286.8 128.5 288.6 129.2 290.4 130.2C292.2 131.2 293.8 132.3 295.2 133.4C296.6 134.5 297.7 135.7 298.6 136.7C300.4 138.7 301.3 140.2 301.4 140.1C301.4 140.1 301.2 139.7 300.8 139.1C300.6 138.8 300.3 138.4 300 137.9C299.7 137.5 299.3 137 298.9 136.4C298 135.3 296.9 134.2 295.5 133C294.1 131.8 292.5 130.7 290.6 129.7C288.8 128.7 286.9 128 285.2 127.4C283.5 126.9 281.9 126.5 280.5 126.4C279.8 126.3 279.2 126.3 278.7 126.2C278.2 126.2 277.7 126.1 277.3 126.2C276.5 126.2 276.1 126.2 276.1 126.3Z" fill="#1F4DC5"/>
<path d="M237 105C237 105 237.7 104.8 239 104.3C240.3 103.9 242.1 103.4 244.5 103C246.9 102.7 249.7 102.6 252.8 103.1C255.9 103.6 259.3 104.6 262.4 106.4C265.6 108.2 268.2 110.5 270.2 112.9C272.2 115.3 273.7 117.8 274.6 120C275.6 122.2 276.1 124 276.4 125.4C276.7 126.7 276.8 127.4 276.9 127.4C276.9 127.4 276.9 127.2 276.9 126.9C276.8 126.6 276.8 126 276.7 125.4C276.5 124.1 276 122.2 275.1 119.9C274.2 117.7 272.8 115.1 270.7 112.7C268.7 110.2 266 107.9 262.8 106C259.6 104.2 256.2 103.2 253 102.7C249.8 102.3 246.9 102.4 244.5 102.7C242.1 103.1 240.2 103.6 239 104.1C238.4 104.3 237.9 104.6 237.6 104.7C237.1 104.9 237 104.9 237 105Z" fill="#1F4DC5"/>
<path d="M186.5 64.4C186.5 64.5 187.5 64.1 189.3 63.8C191.1 63.4 193.8 63.2 197.1 63.5C198.8 63.6 200.5 64 202.4 64.4C204.3 64.9 206.3 65.5 208.3 66.4C210.3 67.3 212.4 68.3 214.4 69.6C216.4 70.9 218.4 72.4 220.2 74.2C223.8 77.7 226.7 81.7 229 85.4C231.3 89.2 233.1 92.7 234.5 95.7C235.9 98.7 237 101.2 237.8 102.9C238.2 103.7 238.5 104.4 238.7 104.9C238.9 105.3 239 105.6 239 105.6C239 105.6 238.9 105.3 238.8 104.9C238.6 104.4 238.3 103.7 238 102.9C237.3 101.2 236.3 98.7 234.9 95.6C233.5 92.6 231.8 89 229.5 85.2C227.2 81.4 224.3 77.4 220.7 73.8C218.9 72 216.9 70.5 214.8 69.2C212.8 67.9 210.7 66.8 208.7 65.9C206.7 65 204.6 64.4 202.7 63.9C200.8 63.5 199 63.2 197.3 63.1C194 62.9 191.2 63.2 189.4 63.6C188.5 63.8 187.8 64 187.3 64.2C186.8 64.3 186.5 64.4 186.5 64.4Z" fill="#1F4DC5"/>
<path d="M138.4 34.6C138.4 34.6 139.3 34.4 140.8 34C142.3 33.6 144.6 33.2 147.5 33.1C153.2 32.9 161.3 34.5 168.5 39.4C170.3 40.6 172 42 173.5 43.3C175 44.7 176.4 46.2 177.6 47.6C180 50.5 181.9 53.4 183.2 55.9C184.6 58.4 185.5 60.5 186.2 62C186.5 62.7 186.7 63.3 186.9 63.7C187.1 64.1 187.2 64.3 187.2 64.3C187.2 64.3 187.2 64.1 187 63.7C186.9 63.3 186.7 62.7 186.4 62C185.8 60.5 184.9 58.3 183.6 55.8C182.3 53.2 180.4 50.3 178 47.4C176.8 45.9 175.4 44.4 173.9 43C172.4 41.6 170.7 40.2 168.9 39C161.5 34 153.3 32.4 147.6 32.7C144.7 32.8 142.4 33.3 140.9 33.8C140.1 34 139.5 34.3 139.1 34.4C138.6 34.5 138.4 34.6 138.4 34.6Z" fill="#1F4DC5"/>
<path d="M88.0998 11.5C88.0998 11.5 88.8998 11.3 90.2998 10.8C91.6998 10.4 93.7998 9.80002 96.4998 9.50002C99.0998 9.20002 102.3 9.10002 105.8 9.50002C109.3 10 113 11 116.7 12.8C120.3 14.6 123.5 16.9 126 19.4C128.5 21.9 130.4 24.4 131.7 26.7C133.1 29 133.9 31 134.5 32.4C135 33.8 135.3 34.6 135.3 34.6C135.3 34.6 135.3 34.4 135.2 34C135.1 33.6 135 33.1 134.7 32.3C134.2 30.9 133.4 28.9 132.1 26.5C130.8 24.2 128.9 21.5 126.4 19C123.9 16.5 120.7 14.1 117 12.3C113.3 10.5 109.5 9.50002 105.9 9.00002C102.4 8.60002 99.0998 8.70002 96.4998 9.10002C93.7998 9.50002 91.6998 10.1 90.2998 10.6C89.5998 10.8 89.0998 11.1 88.6998 11.2C88.1998 11.4 87.9998 11.5 88.0998 11.5Z" fill="#1F4DC5"/>
<path d="M71.2999 7.00001C71.2999 7.10001 71.9999 7.10001 73.0999 7.30001C74.1999 7.50001 75.6999 8.00001 77.1999 8.90001C78.6999 9.80001 79.7999 10.9 80.4999 11.8C81.1999 12.7 81.4999 13.3 81.5999 13.3C81.6999 13.3 81.3999 12.6 80.7999 11.6C80.1999 10.6 78.9999 9.40001 77.4999 8.40001C75.9999 7.50001 74.2999 7.00001 73.1999 6.90001C71.9999 6.90001 71.2999 7.00001 71.2999 7.00001Z" fill="#1F4DC5"/>
<path d="M273.9 167.4C273.9 167.5 276.1 167.3 279.5 167.7C279.9 167.8 280.4 167.8 280.8 167.9C281.3 168 281.7 168.1 282.2 168.2C283.2 168.4 284.2 168.7 285.3 169.1C287.4 169.8 289.7 170.9 292 172.2C294.2 173.6 296.2 175.2 297.8 176.8C298.6 177.6 299.4 178.4 300 179.2C300.3 179.6 300.6 180 300.9 180.3C301.2 180.7 301.4 181.1 301.7 181.4C303.6 184.3 304.4 186.3 304.5 186.2C304.5 186.2 304.3 185.7 304 184.8C303.8 184.3 303.6 183.8 303.2 183.2C302.9 182.6 302.5 181.9 302 181.2C301.8 180.8 301.5 180.5 301.2 180.1C300.9 179.7 300.6 179.3 300.3 178.9C299.7 178.1 298.9 177.3 298.1 176.4C296.5 174.8 294.5 173.1 292.2 171.7C289.9 170.3 287.6 169.3 285.4 168.6C284.3 168.3 283.2 167.9 282.2 167.8C281.7 167.7 281.2 167.6 280.7 167.5C280.2 167.4 279.8 167.4 279.3 167.3C278.4 167.2 277.6 167.2 277 167.2C276.3 167.2 275.7 167.2 275.2 167.2C274.4 167.3 273.9 167.4 273.9 167.4Z" fill="#1F4DC5"/>
<path d="M227.8 138.1C227.8 138.1 228 138.1 228.4 138C228.8 137.9 229.4 137.8 230.2 137.7C231.8 137.5 234 137.2 236.9 137.3C239.7 137.3 243.1 137.7 246.7 138.6C250.3 139.5 254.1 141.1 257.8 143.4C261.4 145.7 264.5 148.5 266.9 151.4C269.3 154.3 271.1 157.1 272.3 159.7C273.5 162.2 274.3 164.4 274.8 165.9C275.1 166.6 275.2 167.3 275.3 167.6C275.4 168 275.5 168.2 275.5 168.2C275.5 168.2 275.5 168 275.4 167.6C275.3 167.2 275.2 166.6 275 165.8C274.6 164.3 273.9 162.1 272.7 159.5C271.5 156.9 269.7 154 267.3 151.1C264.9 148.2 261.8 145.4 258.1 143C254.4 140.7 250.5 139.1 246.9 138.2C243.2 137.3 239.8 136.9 237 137C234.2 137 231.9 137.3 230.3 137.6C229.5 137.7 228.9 137.9 228.5 138C228 138 227.8 138.1 227.8 138.1Z" fill="#1F4DC5"/>
<path d="M163.7 94.4C163.7 94.4 164 94.4 164.6 94.3C165.2 94.2 166 94 167.1 93.9C169.3 93.6 172.5 93.3 176.5 93.5C178.5 93.6 180.6 93.9 182.9 94.4C185.2 94.9 187.6 95.6 190 96.5C194.9 98.4 200 101.2 205 104.5C207.5 106.2 209.8 108 211.9 109.9C214 111.8 215.9 113.8 217.6 115.8C221 119.8 223.5 123.8 225.3 127.3C227.1 130.8 228.3 133.8 229 135.9C229.4 136.9 229.6 137.8 229.8 138.3C230 138.9 230.1 139.1 230.1 139.1C230.1 139.1 230 138.8 229.9 138.2C229.7 137.6 229.5 136.8 229.2 135.7C228.5 133.6 227.4 130.5 225.6 127C223.8 123.5 221.3 119.4 217.9 115.3C216.2 113.3 214.3 111.3 212.2 109.3C210.1 107.4 207.7 105.5 205.2 103.8C200.1 100.5 195 97.7 190.1 95.8C187.6 94.8 185.2 94.1 182.9 93.7C180.6 93.2 178.4 93 176.4 92.9C172.4 92.7 169.2 93.1 167 93.5C165.9 93.7 165.1 93.9 164.5 94C164 94.3 163.7 94.4 163.7 94.4Z" fill="#1F4DC5"/>
<path d="M100.8 61.4C100.8 61.4 101.1 61.4 101.6 61.3C102.1 61.2 102.8 61.1 103.8 60.9C105.7 60.6 108.5 60.3 112 60.3C115.5 60.3 119.6 60.6 124.1 61.6C126.3 62.1 128.7 62.8 131 63.6C133.3 64.4 135.7 65.5 138 66.8C142.6 69.3 146.8 72.2 150.2 75.3C153.6 78.4 156.2 81.6 158.1 84.5C160 87.4 161.1 90 161.9 91.8C162.3 92.7 162.5 93.4 162.7 93.9C162.9 94.4 163 94.6 163 94.6C163 94.6 162.9 94.3 162.8 93.8C162.6 93.3 162.4 92.6 162.1 91.7C161.4 89.9 160.3 87.3 158.5 84.3C156.7 81.3 154 78 150.6 74.9C147.2 71.8 143 68.9 138.3 66.3C136 65 133.6 64 131.2 63.1C128.8 62.2 126.5 61.6 124.2 61.1C119.7 60.1 115.5 59.8 112 59.9C108.5 60 105.7 60.3 103.8 60.7C102.8 60.9 102.1 61.1 101.6 61.2C101.1 61.3 100.8 61.3 100.8 61.4Z" fill="#1F4DC5"/>
<path d="M54.3998 23.6C54.3998 23.6 54.5998 23.6 55.0998 23.6C55.4998 23.6 56.1998 23.6 56.9998 23.7C58.6998 23.8 61.0998 24 63.9998 24.5C69.7998 25.5 77.7998 28.4 84.8998 34.1C91.9998 39.8 96.2998 47.1 98.4998 52.6C99.5998 55.4 100.3 57.7 100.7 59.3C100.9 60.1 101 60.7 101.1 61.2C101.2 61.6 101.3 61.9 101.3 61.8C101.3 61.8 101.3 61.6 101.2 61.1C101.1 60.7 101 60 100.9 59.2C100.6 57.6 99.8998 55.2 98.7998 52.4C96.6998 46.8 92.2998 39.5 85.1998 33.7C78.0998 27.9 69.9998 25.1 64.0998 24.1C61.0998 23.6 58.6998 23.5 56.9998 23.5C56.1998 23.5 55.4998 23.5 55.0998 23.5C54.6998 23.5 54.3998 23.6 54.3998 23.6Z" fill="#1F4DC5"/>
<path d="M41.2 20.2C41.2 20.3 41.9 20.2 43 20.1C44.1 20.1 45.6 20.2 47.1 20.8C48.6 21.4 49.9 22.2 50.7 22.9C51.5 23.6 52 24.1 52 24.1C52 24.1 51.7 23.5 50.9 22.7C50.1 21.9 48.8 21 47.2 20.4C45.6 19.8 44 19.7 42.9 19.8C41.8 19.9 41.2 20.1 41.2 20.2Z" fill="#1F4DC5"/>
<path d="M268.7 81.9C268.8 82 269.3 81.6 270.2 81.1C271.1 80.7 272.6 80.2 274.1 80.3C275.7 80.4 277.1 80.9 278 81.3C279 81.7 279.5 82.1 279.6 82C279.6 82 279.1 81.5 278.2 81C277.3 80.5 275.8 79.9 274.1 79.8C272.4 79.7 270.9 80.2 270 80.8C269.1 81.4 268.6 81.9 268.7 81.9Z" fill="#1F4DC5"/>
<path d="M241.4 71.3C241.4 71.4 243.1 70.4 246.2 69.8C249.2 69.2 253.7 69.1 258.1 70.9C262.5 72.7 265.6 76 267.2 78.6C268.9 81.2 269.4 83.1 269.5 83.1C269.5 83.1 269.4 82.6 269.1 81.8C268.8 81 268.3 79.8 267.5 78.4C265.9 75.7 262.8 72.3 258.3 70.4C253.8 68.5 249.2 68.7 246.2 69.4C244.7 69.8 243.5 70.2 242.7 70.6C241.8 71 241.4 71.2 241.4 71.3Z" fill="#1F4DC5"/>
<path d="M207.6 44.3C207.6 44.3 208.3 44.4 209.5 44.5C210.7 44.6 212.4 44.8 214.5 45.3C216.6 45.7 219.1 46.4 221.7 47.5C224.3 48.5 227.2 50 229.8 51.9C235.1 55.8 238.6 60.7 240.6 64.5C241.6 66.4 242.2 68 242.6 69.2C243 70.3 243.2 71 243.3 71C243.3 71 243.3 70.8 243.2 70.5C243.1 70.2 243 69.7 242.8 69.2C242.5 68 241.8 66.4 240.9 64.4C239 60.5 235.5 55.4 230.1 51.5C227.4 49.5 224.5 48.1 221.9 47.1C219.2 46.1 216.7 45.4 214.6 45C212.5 44.6 210.7 44.4 209.5 44.4C208.9 44.4 208.4 44.4 208.1 44.4C207.8 44.3 207.6 44.3 207.6 44.3Z" fill="#1F4DC5"/>
<path d="M180.9 19.9C180.9 20 183 20.3 186.3 21.4C187.1 21.7 188 22 188.9 22.5C189.8 22.9 190.8 23.4 191.8 24C193.8 25.2 195.8 26.6 197.8 28.4C199.7 30.2 201.4 32.1 202.7 33.9C203.3 34.9 204 35.7 204.4 36.6C204.6 37 204.9 37.5 205.1 37.9C205.3 38.3 205.5 38.7 205.7 39.1C207.1 42.2 207.6 44.4 207.7 44.3C207.7 44.3 207.6 43.8 207.4 42.8C207.3 42.3 207.1 41.7 206.9 41.1C206.7 40.4 206.4 39.7 206.1 38.9C205.9 38.5 205.7 38.1 205.5 37.6C205.3 37.2 205 36.7 204.8 36.3C204.3 35.4 203.7 34.5 203.1 33.5C201.8 31.6 200.1 29.7 198.2 27.8C196.2 26 194.1 24.6 192.1 23.4C191.1 22.9 190.1 22.3 189.2 22C188.3 21.6 187.4 21.3 186.5 21C185.7 20.7 184.9 20.5 184.2 20.4C183.5 20.2 182.9 20.1 182.5 20.1C181.4 20 180.9 19.9 180.9 19.9Z" fill="#1F4DC5"/>
<path d="M169.5 8.00002C169.5 8.10002 170.3 8.40002 171.5 9.00002C172.7 9.60002 174.3 10.7 175.8 12.2C177.3 13.7 178.3 15.4 178.9 16.6C179.5 17.9 179.7 18.7 179.8 18.7C179.9 18.7 179.7 17.8 179.2 16.5C178.7 15.2 177.7 13.4 176.2 11.9C174.7 10.3 173 9.30002 171.7 8.70002C170.4 8.10002 169.5 7.90002 169.5 8.00002Z" fill="#1F4DC5"/>
<path d="M235.3 33.4C235.3 33.4 235.7 33.8 236.5 34.6C237.3 35.4 238.6 36.4 240.1 37.9C243.2 40.9 247.4 45.4 251.8 51.6C256.3 57.8 261 65.6 265.1 74.8C267.1 79.4 269.1 84.3 270.7 89.6C272.3 94.9 273.5 100.4 274.3 106.1C277.2 129.3 275.5 150.5 273.9 165.7C273.1 173.3 272.3 179.4 271.7 183.7C271.4 185.7 271.2 187.4 271.1 188.6C271 189.7 270.9 190.3 271 190.3C271 190.3 271.2 189.7 271.4 188.6C271.6 187.4 271.9 185.8 272.2 183.7C272.9 179.5 273.8 173.3 274.7 165.7C276.5 150.5 278.3 129.2 275.4 105.9C274.6 100.1 273.3 94.5 271.7 89.2C270.1 83.9 268.1 78.9 266 74.3C261.8 65.1 256.9 57.2 252.4 51.1C247.8 44.9 243.5 40.4 240.3 37.5C238.7 36 237.4 35 236.5 34.3C235.8 33.7 235.4 33.3 235.3 33.4Z" fill="#263238"/>
<path d="M235.3 33.4C235.2 33.5 236.4 34.8 237.8 37.5C239.3 40.2 240.8 44.4 241.6 49.9C242.4 55.4 242.4 62 241.9 69.3C241.4 76.6 240.7 84.6 239.5 93C237.2 109.8 233.4 124.6 230 135.2C228.3 140.5 226.8 144.7 225.7 147.6C225.2 149 224.8 150.1 224.5 150.9C224.2 151.7 224.1 152.1 224.1 152.1C224.1 152.1 224.3 151.7 224.7 151C225.1 150.1 225.6 149.1 226.1 147.7C227.3 144.8 229 140.6 230.8 135.4C234.4 124.9 238.4 110 240.7 93.1C241.9 84.7 242.6 76.6 243 69.3C243.5 62 243.4 55.3 242.5 49.8C241.6 44.3 239.9 40 238.3 37.3C237.5 36 236.8 35 236.2 34.4C235.7 33.7 235.4 33.4 235.3 33.4Z" fill="#263238"/>
<path d="M231.4 30.6C231.4 30.6 230.9 30.3 230 29.8C229.1 29.3 227.7 28.5 225.9 27.7C222.3 26 217 23.6 210.2 21.6C203.4 19.6 194.8 18.2 185.4 18.7C175.9 19.2 165.7 21.5 155.5 25.1C134.8 32.3 118.5 44.1 108 53.5C102.7 58.2 98.6999 62.4 95.9999 65.4C94.6999 66.9 93.6999 68.1 92.9999 68.9C92.2999 69.7 91.9999 70.1 91.9999 70.2C91.9999 70.2 92.3999 69.8 93.0999 69.1C93.7999 68.4 94.8999 67.2 96.1999 65.8C98.8999 62.9 103 58.9 108.4 54.2C119.1 45 135.3 33.4 155.8 26.2C166 22.6 176.1 20.3 185.4 19.8C194.7 19.3 203.2 20.5 210 22.4C216.8 24.3 222.1 26.5 225.8 28.1C227.6 28.9 229 29.6 229.9 30C230.9 30.5 231.4 30.7 231.4 30.6Z" fill="#263238"/>
<path d="M42.0999 27.9C42.0999 27.9 42.2999 27.9 42.5999 27.7C42.9998 27.5 43.3998 27.3 43.9998 27.1C45.2999 26.5 46.9999 25.7 49.1999 24.7C50.2999 24.2 51.5998 23.6 52.8998 22.9C54.2998 22.3 55.7999 21.7 57.4998 21.1C60.7999 19.8 64.4999 18.2 68.6999 16.9C70.7999 16.2 72.9999 15.5 75.2999 14.7C77.5999 14 80.0999 13.4 82.5999 12.7C87.5999 11.2 93.0998 10.2 98.8998 9.00002C110.5 7.00002 123.3 5.50002 136.9 5.40002C150.5 5.40002 163.3 6.80002 174.9 8.90002C180.6 10.2 186.1 11.2 191.1 12.9C193.6 13.7 196 14.3 198.3 15.1C200.6 16 202.7 16.8 204.8 17.6C209 19 212.6 20.9 215.8 22.4C217.4 23.2 218.9 23.8 220.2 24.5C221.5 25.2 222.7 25.9 223.8 26.6C225.9 27.8 227.6 28.7 228.8 29.4C229.3 29.7 229.8 29.9 230.1 30.1C230.4 30.3 230.6 30.3 230.6 30.3C230.6 30.3 230.5 30.2 230.2 30C229.9 29.8 229.4 29.5 228.9 29.2C227.7 28.5 226.1 27.5 224 26.2C222.9 25.6 221.7 24.8 220.4 24.1C219.1 23.4 217.6 22.7 216 21.9C212.8 20.4 209.2 18.4 205 16.9C202.9 16.1 200.7 15.2 198.5 14.3C196.2 13.5 193.8 12.8 191.3 12C186.3 10.3 180.8 9.20002 175.1 7.90002C163.5 5.70002 150.5 4.30002 136.9 4.30002C123.3 4.40002 110.3 5.90002 98.6999 8.00002C92.8999 9.30002 87.3998 10.3 82.3998 11.8C79.8998 12.5 77.3999 13.2 75.0999 13.9C72.7999 14.7 70.5999 15.5 68.4998 16.2C64.1998 17.6 60.5999 19.2 57.2999 20.6C55.6999 21.3 54.1999 21.9 52.7999 22.5C51.4999 23.2 50.1999 23.8 49.0999 24.4C46.8999 25.5 45.1998 26.4 43.9998 27C43.4998 27.3 42.9999 27.5 42.6999 27.7C42.2999 27.8 42.0999 27.8 42.0999 27.9Z" fill="#263238"/>
<path d="M231.4 30.6C231.4 30.6 231 30.7 230.4 30.9C229.7 31.2 228.7 31.5 227.5 32.1C225 33.2 221.4 34.9 217.2 37.4C213 39.9 208.1 43.1 203.1 47.3C198.1 51.5 193.1 56.5 188.1 62C178.1 73.1 170.2 84.1 164.6 92.1C161.8 96.1 159.6 99.4 158.1 101.7C157.4 102.8 156.9 103.6 156.4 104.3C156 104.9 155.8 105.2 155.9 105.3C155.9 105.3 156.2 105 156.6 104.5C157.1 103.8 157.7 103 158.5 102C160.2 99.7 162.5 96.5 165.3 92.7C171.1 84.8 179 73.9 189 62.9C194 57.4 199 52.3 203.9 48.2C208.8 44 213.5 40.7 217.7 38.2C221.9 35.7 225.4 33.9 227.8 32.6C230.1 31.4 231.4 30.7 231.4 30.6Z" fill="#263238"/>
</g>
<defs>
<clipPath id="clip0">
<rect width="304.5" height="334" fill="white" transform="matrix(-1 0 0 1 305 0)"/>
</clipPath>
</defs>
</svg>
