<svg width="24" height="17" viewBox="0 0 24 17" fill="none" xmlns="http://www.w3.org/2000/svg">
<path d="M19.5503 4.4068C19.5681 4.30777 19.5681 4.19223 19.5681 4.0932C19.5681 1.83204 17.4952 0 14.9576 0C12.9025 0 11.1512 1.22136 10.5614 2.88835C9.90022 2.44272 9.04244 2.17864 8.13105 2.17864C6.02234 2.17864 4.30678 3.58155 4.30678 5.29806C4.30678 5.4466 4.32465 5.59515 4.34252 5.74369C1.84066 6.1068 0 7.39418 0 8.89612C0 10.6951 2.62695 12.1641 5.8615 12.1641C7.00521 12.1641 8.05957 11.9825 8.95309 11.6689C9.91809 12.0816 11.1154 12.3126 12.4021 12.3126C13.6351 12.3126 14.7789 12.0981 15.726 11.7184C16.5659 12.1476 17.5845 12.3786 18.6746 12.3786C21.6232 12.3786 24 10.5796 24 8.36796C24 6.38738 22.07 4.72039 19.5503 4.4068Z" fill="url(#paint0_radial)"/>
<path d="M10.9543 3.1689L10.8114 3.56502L10.4361 3.31745C9.84636 2.92133 9.0958 2.70677 8.32737 2.70677C6.52245 2.70677 5.03921 3.89512 5.03921 5.34755C5.03921 5.46308 5.05708 5.59512 5.07495 5.72716L5.12856 6.02424L4.82476 6.07376C2.57309 6.40386 1.00049 7.50968 1.00049 8.74754C1.00049 10.2825 3.34152 11.5369 6.20079 11.5369C7.20153 11.5369 8.16654 11.3883 9.00645 11.0912L9.13154 11.0417L9.25663 11.0912C10.168 11.4708 11.2403 11.6689 12.384 11.6689C13.4741 11.6689 14.5105 11.4874 15.3862 11.1407L15.5292 11.0912L15.6721 11.1573C16.4405 11.5534 17.3519 11.7514 18.2991 11.7514C20.8903 11.7514 22.999 10.1835 22.999 8.2524C22.999 6.53589 21.3549 5.09997 19.0854 4.80289L18.7816 4.76988L18.8173 4.20871C18.8173 2.24463 17.0124 0.643661 14.8143 0.643661C13.0273 0.643661 11.4726 1.66696 10.9543 3.1689Z" fill="url(#paint1_radial)"/>
<path d="M22.3918 8.13691C22.3918 6.7505 20.9979 5.56215 19.0679 5.33108L18.1387 5.21555C18.1387 5.21555 18.1923 4.12623 18.1923 4.09322C18.1923 2.47574 16.709 1.17186 14.8684 1.17186C13.9212 1.17186 13.0635 1.51846 12.438 2.09613C12.9562 1.79904 13.5817 1.61749 14.2429 1.61749C16.0657 1.61749 17.5668 2.92137 17.5668 4.53885C17.5668 4.57186 17.5132 5.66118 17.5132 5.66118L18.4425 5.77672C20.3725 6.02429 21.7664 7.19613 21.7664 8.58254C21.7664 9.24274 21.4447 9.83691 20.9264 10.3321C21.82 9.8039 22.3918 9.01167 22.3918 8.13691Z" fill="url(#paint2_radial)"/>
<path d="M12.6701 3.92815C12.6701 3.86213 12.688 3.79611 12.688 3.71359C12.688 2.24465 11.3477 1.0563 9.70365 1.0563C8.36337 1.0563 7.23753 1.84854 6.86225 2.93786C6.43336 2.64077 5.87937 2.47572 5.28965 2.47572C3.91363 2.47572 2.80566 3.38349 2.80566 4.48931C2.80566 4.58834 2.82353 4.68737 2.82353 4.7864C1.19732 5.03397 0 5.85922 0 6.84951C0 8.02135 1.69769 8.96213 3.78853 8.96213C4.52122 8.96213 5.21817 8.84659 5.79002 8.64854C6.41549 8.91261 7.18392 9.06116 8.02383 9.06116C8.828 9.06116 9.56068 8.91261 10.1683 8.68155C10.7223 8.96213 11.3656 9.11067 12.0804 9.11067C13.9926 9.11067 15.5294 7.93883 15.5294 6.50291C15.5473 5.21553 14.2964 4.14271 12.6701 3.92815Z" fill="url(#paint3_radial)"/>
<path d="M7.09478 3.13593L7.00543 3.40001L6.77312 3.23496C6.39784 2.97089 5.89746 2.83885 5.41496 2.83885C4.23551 2.83885 3.28838 3.61457 3.28838 4.55535C3.28838 4.63788 3.28838 4.7204 3.30625 4.80292L3.34199 5.00098L3.12755 5.03399C1.66217 5.21555 0.643555 5.94176 0.643555 6.7505C0.643555 7.74079 2.16254 8.54953 4.02107 8.54953C4.6644 8.54953 5.28987 8.4505 5.84385 8.25244L5.9332 8.21943L6.00469 8.25244C6.59441 8.50001 7.29136 8.63205 8.02405 8.63205C8.72099 8.63205 9.40007 8.51652 9.97192 8.28545L10.0613 8.25244L10.1506 8.30195C10.651 8.54953 11.2407 8.68156 11.8483 8.68156C13.5281 8.68156 14.9042 7.65826 14.9042 6.4204C14.9042 5.31457 13.8319 4.3738 12.3666 4.19224L12.17 4.17574L12.1879 3.81263C12.1879 2.54176 11.0263 1.50195 9.59665 1.50195C8.43507 1.50195 7.43432 2.14564 7.09478 3.13593Z" fill="url(#paint4_radial)"/>
<path d="M14.5107 6.33787C14.5107 5.4466 13.5993 4.67088 12.3663 4.52233L11.7765 4.43981C11.7765 4.43981 11.8123 3.7301 11.8123 3.71359C11.8123 2.67379 10.8473 1.81554 9.66781 1.81554C9.06022 1.81554 8.48836 2.0466 8.09521 2.40971C8.43475 2.21165 8.84577 2.11262 9.27466 2.11262C10.4541 2.11262 11.4191 2.95437 11.4191 4.01068C11.4191 4.04369 11.3834 4.7369 11.3834 4.7369L11.9731 4.81942C13.224 4.96796 14.1176 5.74369 14.1176 6.63495C14.1176 7.06408 13.921 7.44369 13.5814 7.75728C14.1354 7.42719 14.5107 6.91554 14.5107 6.33787Z" fill="url(#paint5_radial)"/>
<defs>
<radialGradient id="paint0_radial" cx="0" cy="0" r="1" gradientUnits="userSpaceOnUse" gradientTransform="translate(16.4036 15.1369) scale(18.8547 17.4139)">
<stop offset="0.005618" stop-color="#A9D1EF"/>
<stop offset="0.5393" stop-color="#1998D5"/>
<stop offset="1" stop-color="#0073BB"/>
</radialGradient>
<radialGradient id="paint1_radial" cx="0" cy="0" r="1" gradientUnits="userSpaceOnUse" gradientTransform="translate(19.7299 4.26539) scale(11.9423 11.0297)">
<stop offset="0.005618" stop-color="#A9D1EF"/>
<stop offset="0.5393" stop-color="#1998D5"/>
<stop offset="1" stop-color="#0073BB"/>
</radialGradient>
<radialGradient id="paint2_radial" cx="0" cy="0" r="1" gradientUnits="userSpaceOnUse" gradientTransform="translate(19.6515 5.0021) scale(14.3195 13.2252)">
<stop stop-color="#CBEBFB"/>
<stop offset="0.7767" stop-color="#BDCDDA"/>
<stop offset="1" stop-color="#B9C4D0"/>
</radialGradient>
<radialGradient id="paint3_radial" cx="0" cy="0" r="1" gradientUnits="userSpaceOnUse" gradientTransform="translate(10.5619 10.8195) scale(12.2179 11.2842)">
<stop offset="0.005618" stop-color="#A9D1EF"/>
<stop offset="0.5393" stop-color="#1998D5"/>
<stop offset="1" stop-color="#0073BB"/>
</radialGradient>
<radialGradient id="paint4_radial" cx="0" cy="0" r="1" gradientUnits="userSpaceOnUse" gradientTransform="translate(12.7178 3.77453) scale(7.73858 7.14723)">
<stop offset="0.005618" stop-color="#A9D1EF"/>
<stop offset="0.5393" stop-color="#1998D5"/>
<stop offset="1" stop-color="#0073BB"/>
</radialGradient>
<radialGradient id="paint5_radial" cx="0" cy="0" r="1" gradientUnits="userSpaceOnUse" gradientTransform="translate(12.638 4.25339) scale(9.27855 8.56952)">
<stop stop-color="#CBEBFB"/>
<stop offset="0.7767" stop-color="#BDCDDA"/>
<stop offset="1" stop-color="#B9C4D0"/>
</radialGradient>
</defs>
</svg>
